<?xml version="1.0" encoding="UTF-8" standalone="no"?>
<!DOCTYPE svg PUBLIC "-//W3C//DTD SVG 1.1//EN"
 "http://www.w3.org/Graphics/SVG/1.1/DTD/svg11.dtd">
<!-- Generated by graphviz version 7.0.5 (20221223.1930)
 -->
<!-- Title: D:/a/STARpp/STARpp/STARpp/Source/lib/include/star/reference.h Pages: 1 -->
<svg width="486pt" height="330pt"
 viewBox="0.00 0.00 486.03 330.00" xmlns="http://www.w3.org/2000/svg" xmlns:xlink="http://www.w3.org/1999/xlink">
<g id="graph0" class="graph" transform="scale(1 1) rotate(0) translate(4 326)">
<title>D:/a/STARpp/STARpp/STARpp/Source/lib/include/star/reference.h</title>
<!-- Node1 -->
<g id="node1" class="node">
<title>Node1</title>
<g id="a_node1"><a xlink:title="The reference header file provides facilities to load election data in the reference formats.">
<polygon fill="#bfbfbf" stroke="black" points="64.53,-280.5 64.53,-321.5 200.53,-321.5 200.53,-280.5 64.53,-280.5"/>
<text text-anchor="start" x="72.53" y="-309.5" font-family="Helvetica,sans-Serif" font-size="10.00">D:/a/STARpp/STARpp</text>
<text text-anchor="start" x="72.53" y="-298.5" font-family="Helvetica,sans-Serif" font-size="10.00">/STARpp/Source/lib/include</text>
<text text-anchor="middle" x="132.53" y="-287.5" font-family="Helvetica,sans-Serif" font-size="10.00">/star/reference.h</text>
</a>
</g>
</g>
<!-- Node2 -->
<g id="node2" class="node">
<title>Node2</title>
<g id="a_node2"><a xlink:href="election_8h_source.html" target="_top" xlink:title=" ">
<polygon fill="none" stroke="black" points="66.53,-112.5 66.53,-131.5 144.53,-131.5 144.53,-112.5 66.53,-112.5"/>
<text text-anchor="middle" x="105.53" y="-119.5" font-family="Helvetica,sans-Serif" font-size="10.00">star/election.h</text>
</a>
</g>
</g>
<!-- Node1&#45;&gt;Node2 -->
<g id="edge1" class="edge">
<title>Node1&#45;&gt;Node2</title>
<path fill="none" stroke="midnightblue" d="M96.03,-280.51C81.01,-271.07 64.39,-258.6 52.53,-244 35.45,-222.99 33.97,-214.53 28.53,-188 26.74,-179.29 24.1,-175.71 28.53,-168 36.96,-153.3 52.25,-142.95 67,-135.91"/>
<polygon fill="midnightblue" stroke="midnightblue" points="68.36,-139.14 76.15,-131.95 65.58,-132.71 68.36,-139.14"/>
</g>
<!-- Node8 -->
<g id="node8" class="node">
<title>Node8</title>
<g id="a_node8"><a xlink:href="expectedelectionresult_8h_source.html" target="_top" xlink:title=" ">
<polygon fill="none" stroke="black" points="61.53,-224.5 61.53,-243.5 203.53,-243.5 203.53,-224.5 61.53,-224.5"/>
<text text-anchor="middle" x="132.53" y="-231.5" font-family="Helvetica,sans-Serif" font-size="10.00">star/expectedelectionresult.h</text>
</a>
</g>
</g>
<!-- Node1&#45;&gt;Node8 -->
<g id="edge7" class="edge">
<title>Node1&#45;&gt;Node8</title>
<path fill="none" stroke="midnightblue" d="M132.53,-280.85C132.53,-272.59 132.53,-262.95 132.53,-254.64"/>
<polygon fill="midnightblue" stroke="midnightblue" points="136.03,-254.92 132.53,-244.92 129.03,-254.92 136.03,-254.92"/>
</g>
<!-- Node15 -->
<g id="node15" class="node">
<title>Node15</title>
<g id="a_node15"><a xlink:href="calculator_8h_source.html" target="_top" xlink:title=" ">
<polygon fill="none" stroke="black" points="233.53,-224.5 233.53,-243.5 319.53,-243.5 319.53,-224.5 233.53,-224.5"/>
<text text-anchor="middle" x="276.53" y="-231.5" font-family="Helvetica,sans-Serif" font-size="10.00">star/calculator.h</text>
</a>
</g>
</g>
<!-- Node1&#45;&gt;Node15 -->
<g id="edge17" class="edge">
<title>Node1&#45;&gt;Node15</title>
<path fill="none" stroke="midnightblue" d="M175.34,-280.67C198.67,-270.14 226.92,-257.39 247.64,-248.04"/>
<polygon fill="midnightblue" stroke="midnightblue" points="248.95,-251.29 256.63,-243.98 246.07,-244.91 248.95,-251.29"/>
</g>
<!-- Node3 -->
<g id="node3" class="node">
<title>Node3</title>
<g id="a_node3"><a xlink:title=" ">
<polygon fill="none" stroke="#bfbfbf" points="71.53,-56.5 71.53,-75.5 139.53,-75.5 139.53,-56.5 71.53,-56.5"/>
<text text-anchor="middle" x="105.53" y="-63.5" font-family="Helvetica,sans-Serif" font-size="10.00">qdatetime.h</text>
</a>
</g>
</g>
<!-- Node2&#45;&gt;Node3 -->
<g id="edge2" class="edge">
<title>Node2&#45;&gt;Node3</title>
<path fill="none" stroke="midnightblue" d="M105.53,-112.56C105.53,-105.63 105.53,-95.52 105.53,-86.59"/>
<polygon fill="midnightblue" stroke="midnightblue" points="109.03,-86.71 105.53,-76.71 102.03,-86.72 109.03,-86.71"/>
</g>
<!-- Node4 -->
<g id="node4" class="node">
<title>Node4</title>
<g id="a_node4"><a xlink:title=" ">
<polygon fill="none" stroke="#bfbfbf" points="81.53,-0.5 81.53,-19.5 131.53,-19.5 131.53,-0.5 81.53,-0.5"/>
<text text-anchor="middle" x="106.53" y="-7.5" font-family="Helvetica,sans-Serif" font-size="10.00">QString</text>
</a>
</g>
</g>
<!-- Node2&#45;&gt;Node4 -->
<g id="edge3" class="edge">
<title>Node2&#45;&gt;Node4</title>
<path fill="none" stroke="midnightblue" d="M66.88,-112.5C31.15,-102.7 -13.86,-84.21 4.53,-56 19.08,-33.67 47.5,-22.34 70.65,-16.64"/>
<polygon fill="midnightblue" stroke="midnightblue" points="71.33,-20.07 80.36,-14.53 69.85,-13.23 71.33,-20.07"/>
</g>
<!-- Node5 -->
<g id="node5" class="node">
<title>Node5</title>
<g id="a_node5"><a xlink:title=" ">
<polygon fill="none" stroke="#bfbfbf" points="13.53,-56.5 13.53,-75.5 53.53,-75.5 53.53,-56.5 13.53,-56.5"/>
<text text-anchor="middle" x="33.53" y="-63.5" font-family="Helvetica,sans-Serif" font-size="10.00">QList</text>
</a>
</g>
</g>
<!-- Node2&#45;&gt;Node5 -->
<g id="edge4" class="edge">
<title>Node2&#45;&gt;Node5</title>
<path fill="none" stroke="midnightblue" d="M94.28,-112.56C83.43,-104.43 66.79,-91.95 53.66,-82.1"/>
<polygon fill="midnightblue" stroke="midnightblue" points="55.77,-79.31 45.67,-76.11 51.57,-84.91 55.77,-79.31"/>
</g>
<!-- Node6 -->
<g id="node6" class="node">
<title>Node6</title>
<g id="a_node6"><a xlink:href="rank_8h_source.html" target="_top" xlink:title=" ">
<polygon fill="none" stroke="black" points="158.03,-56.5 158.03,-75.5 221.03,-75.5 221.03,-56.5 158.03,-56.5"/>
<text text-anchor="middle" x="189.53" y="-63.5" font-family="Helvetica,sans-Serif" font-size="10.00">star/rank.h</text>
</a>
</g>
</g>
<!-- Node2&#45;&gt;Node6 -->
<g id="edge5" class="edge">
<title>Node2&#45;&gt;Node6</title>
<path fill="none" stroke="midnightblue" d="M118.65,-112.56C131.6,-104.24 151.63,-91.36 167.11,-81.41"/>
<polygon fill="midnightblue" stroke="midnightblue" points="168.7,-84.55 175.22,-76.2 164.92,-78.66 168.7,-84.55"/>
</g>
<!-- Node7 -->
<g id="node7" class="node">
<title>Node7</title>
<g id="a_node7"><a xlink:title=" ">
<polygon fill="none" stroke="#bfbfbf" points="220.03,-0.5 220.03,-19.5 259.03,-19.5 259.03,-0.5 220.03,-0.5"/>
<text text-anchor="middle" x="239.53" y="-7.5" font-family="Helvetica,sans-Serif" font-size="10.00">QSet</text>
</a>
</g>
</g>
<!-- Node6&#45;&gt;Node7 -->
<g id="edge6" class="edge">
<title>Node6&#45;&gt;Node7</title>
<path fill="none" stroke="midnightblue" d="M197.34,-56.56C204.5,-48.83 215.3,-37.16 224.19,-27.57"/>
<polygon fill="midnightblue" stroke="midnightblue" points="226.68,-30.03 230.9,-20.31 221.54,-25.27 226.68,-30.03"/>
</g>
<!-- Node9 -->
<g id="node9" class="node">
<title>Node9</title>
<g id="a_node9"><a xlink:title=" ">
<polygon fill="none" stroke="#bfbfbf" points="38.03,-168.5 38.03,-187.5 103.03,-187.5 103.03,-168.5 38.03,-168.5"/>
<text text-anchor="middle" x="70.53" y="-175.5" font-family="Helvetica,sans-Serif" font-size="10.00">QStringList</text>
</a>
</g>
</g>
<!-- Node8&#45;&gt;Node9 -->
<g id="edge8" class="edge">
<title>Node8&#45;&gt;Node9</title>
<path fill="none" stroke="midnightblue" d="M122.84,-224.56C113.68,-216.59 99.73,-204.43 88.53,-194.68"/>
<polygon fill="midnightblue" stroke="midnightblue" points="90.92,-192.12 81.08,-188.2 86.33,-197.4 90.92,-192.12"/>
</g>
<!-- Node10 -->
<g id="node10" class="node">
<title>Node10</title>
<g id="a_node10"><a xlink:href="electionresult_8h_source.html" target="_top" xlink:title=" ">
<polygon fill="none" stroke="black" points="159.53,-168.5 159.53,-187.5 261.53,-187.5 261.53,-168.5 159.53,-168.5"/>
<text text-anchor="middle" x="210.53" y="-175.5" font-family="Helvetica,sans-Serif" font-size="10.00">star/electionresult.h</text>
</a>
</g>
</g>
<!-- Node8&#45;&gt;Node10 -->
<g id="edge9" class="edge">
<title>Node8&#45;&gt;Node10</title>
<path fill="none" stroke="midnightblue" d="M144.71,-224.56C156.62,-216.32 174.99,-203.6 189.3,-193.7"/>
<polygon fill="midnightblue" stroke="midnightblue" points="190.95,-196.81 197.18,-188.24 186.96,-191.05 190.95,-196.81"/>
</g>
<!-- Node10&#45;&gt;Node2 -->
<g id="edge10" class="edge">
<title>Node10&#45;&gt;Node2</title>
<path fill="none" stroke="midnightblue" d="M194.12,-168.56C177.48,-160 151.45,-146.62 131.91,-136.57"/>
<polygon fill="midnightblue" stroke="midnightblue" points="133.66,-133.53 123.16,-132.07 130.45,-139.76 133.66,-133.53"/>
</g>
<!-- Node11 -->
<g id="node11" class="node">
<title>Node11</title>
<g id="a_node11"><a xlink:href="seat_8h_source.html" target="_top" xlink:title=" ">
<polygon fill="none" stroke="black" points="318.03,-112.5 318.03,-131.5 381.03,-131.5 381.03,-112.5 318.03,-112.5"/>
<text text-anchor="middle" x="349.53" y="-119.5" font-family="Helvetica,sans-Serif" font-size="10.00">star/seat.h</text>
</a>
</g>
</g>
<!-- Node10&#45;&gt;Node11 -->
<g id="edge11" class="edge">
<title>Node10&#45;&gt;Node11</title>
<path fill="none" stroke="midnightblue" d="M232.24,-168.56C255.09,-159.69 291.3,-145.62 317.44,-135.46"/>
<polygon fill="midnightblue" stroke="midnightblue" points="318.49,-138.81 326.55,-131.93 315.96,-132.29 318.49,-138.81"/>
</g>
<!-- Node12 -->
<g id="node12" class="node">
<title>Node12</title>
<g id="a_node12"><a xlink:title=" ">
<polygon fill="none" stroke="#bfbfbf" points="425.03,-56.5 425.03,-75.5 478.03,-75.5 478.03,-56.5 425.03,-56.5"/>
<text text-anchor="middle" x="451.53" y="-63.5" font-family="Helvetica,sans-Serif" font-size="10.00">QObject</text>
</a>
</g>
</g>
<!-- Node11&#45;&gt;Node12 -->
<g id="edge12" class="edge">
<title>Node11&#45;&gt;Node12</title>
<path fill="none" stroke="midnightblue" d="M365.46,-112.56C381.56,-104.04 406.68,-90.74 425.63,-80.71"/>
<polygon fill="midnightblue" stroke="midnightblue" points="427.16,-83.86 434.36,-76.09 423.89,-77.67 427.16,-83.86"/>
</g>
<!-- Node13 -->
<g id="node13" class="node">
<title>Node13</title>
<g id="a_node13"><a xlink:title=" ">
<polygon fill="none" stroke="#bfbfbf" points="358.53,-56.5 358.53,-75.5 406.53,-75.5 406.53,-56.5 358.53,-56.5"/>
<text text-anchor="middle" x="382.53" y="-63.5" font-family="Helvetica,sans-Serif" font-size="10.00">QFlags</text>
</a>
</g>
</g>
<!-- Node11&#45;&gt;Node13 -->
<g id="edge13" class="edge">
<title>Node11&#45;&gt;Node13</title>
<path fill="none" stroke="midnightblue" d="M354.68,-112.56C359.21,-105.15 365.95,-94.12 371.67,-84.76"/>
<polygon fill="midnightblue" stroke="midnightblue" points="374.5,-86.85 376.72,-76.49 368.52,-83.2 374.5,-86.85"/>
</g>
<!-- Node14 -->
<g id="node14" class="node">
<title>Node14</title>
<g id="a_node14"><a xlink:href="qualifierresult_8h_source.html" target="_top" xlink:title=" ">
<polygon fill="none" stroke="black" points="239.03,-56.5 239.03,-75.5 340.03,-75.5 340.03,-56.5 239.03,-56.5"/>
<text text-anchor="middle" x="289.53" y="-63.5" font-family="Helvetica,sans-Serif" font-size="10.00">star/qualifierresult.h</text>
</a>
</g>
</g>
<!-- Node11&#45;&gt;Node14 -->
<g id="edge14" class="edge">
<title>Node11&#45;&gt;Node14</title>
<path fill="none" stroke="midnightblue" d="M340.15,-112.56C331.29,-104.59 317.79,-92.43 306.95,-82.68"/>
<polygon fill="midnightblue" stroke="midnightblue" points="309.54,-80.3 299.76,-76.21 304.85,-85.51 309.54,-80.3"/>
</g>
<!-- Node14&#45;&gt;Node4 -->
<g id="edge16" class="edge">
<title>Node14&#45;&gt;Node4</title>
<path fill="none" stroke="midnightblue" d="M260.93,-56.56C228.82,-47.09 176.68,-31.7 142,-21.47"/>
<polygon fill="midnightblue" stroke="midnightblue" points="143.43,-18.24 132.85,-18.77 141.45,-24.95 143.43,-18.24"/>
</g>
<!-- Node14&#45;&gt;Node7 -->
<g id="edge15" class="edge">
<title>Node14&#45;&gt;Node7</title>
<path fill="none" stroke="midnightblue" d="M281.71,-56.56C274.55,-48.83 263.75,-37.16 254.86,-27.57"/>
<polygon fill="midnightblue" stroke="midnightblue" points="257.51,-25.27 248.15,-20.31 252.37,-30.03 257.51,-25.27"/>
</g>
<!-- Node15&#45;&gt;Node2 -->
<g id="edge20" class="edge">
<title>Node15&#45;&gt;Node2</title>
<path fill="none" stroke="midnightblue" d="M233.6,-224.69C207.6,-218.04 174.86,-206.66 150.53,-188 134.54,-175.74 122.09,-156.18 114.38,-141.71"/>
<polygon fill="midnightblue" stroke="midnightblue" points="117.52,-140.16 109.91,-132.79 111.26,-143.3 117.52,-140.16"/>
</g>
<!-- Node15&#45;&gt;Node10 -->
<g id="edge21" class="edge">
<title>Node15&#45;&gt;Node10</title>
<path fill="none" stroke="midnightblue" d="M266.21,-224.56C256.37,-216.51 241.31,-204.19 229.34,-194.39"/>
<polygon fill="midnightblue" stroke="midnightblue" points="231.68,-191.78 221.72,-188.16 227.24,-197.2 231.68,-191.78"/>
</g>
<!-- Node15&#45;&gt;Node12 -->
<g id="edge18" class="edge">
<title>Node15&#45;&gt;Node12</title>
<path fill="none" stroke="midnightblue" d="M303.03,-224.64C323.17,-217.33 350.69,-205.17 370.53,-188 404.5,-158.58 430.35,-111.67 442.97,-85.75"/>
<polygon fill="midnightblue" stroke="midnightblue" points="446.08,-87.36 447.18,-76.82 439.75,-84.38 446.08,-87.36"/>
</g>
<!-- Node15&#45;&gt;Node13 -->
<g id="edge19" class="edge">
<title>Node15&#45;&gt;Node13</title>
<path fill="none" stroke="midnightblue" d="M292.91,-224.53C319.31,-209.84 370.34,-176.85 390.53,-132 397.03,-117.55 394.08,-99.58 390.05,-86.19"/>
<polygon fill="midnightblue" stroke="midnightblue" points="393.38,-85.13 386.77,-76.85 386.78,-87.45 393.38,-85.13"/>
</g>
<!-- Node15&#45;&gt;Node14 -->
<g id="edge22" class="edge">
<title>Node15&#45;&gt;Node14</title>
<path fill="none" stroke="midnightblue" d="M277.19,-224.54C279.18,-199.12 285.14,-122.94 287.99,-86.65"/>
<polygon fill="midnightblue" stroke="midnightblue" points="291.47,-87 288.76,-76.76 284.49,-86.45 291.47,-87"/>
</g>
</g>
</svg>
